<svg width="2283" height="2419" xmlns="http://www.w3.org/2000/svg" xmlns:xlink="http://www.w3.org/1999/xlink" xml:space="preserve" overflow="hidden"><defs><filter id="fx0" x="-10%" y="-10%" width="120%" height="120%" filterUnits="userSpaceOnUse" primitiveUnits="userSpaceOnUse"><feComponentTransfer color-interpolation-filters="sRGB"><feFuncR type="discrete" tableValues="1 1"/><feFuncG type="discrete" tableValues="1 1"/><feFuncB type="discrete" tableValues="1 1"/><feFuncA type="linear" slope="0.4" intercept="0"/></feComponentTransfer><feGaussianBlur stdDeviation="6.11111 6.11111"/></filter><filter id="fx1" x="-10%" y="-10%" width="120%" height="120%" filterUnits="userSpaceOnUse" primitiveUnits="userSpaceOnUse"><feComponentTransfer color-interpolation-filters="sRGB"><feFuncR type="discrete" tableValues="1 1"/><feFuncG type="discrete" tableValues="1 1"/><feFuncB type="discrete" tableValues="1 1"/><feFuncA type="linear" slope="0.4" intercept="0"/></feComponentTransfer><feGaussianBlur stdDeviation="6.11111 6.11111"/></filter><filter id="fx2" x="-10%" y="-10%" width="120%" height="120%" filterUnits="userSpaceOnUse" primitiveUnits="userSpaceOnUse"><feComponentTransfer color-interpolation-filters="sRGB"><feFuncR type="discrete" tableValues="1 1"/><feFuncG type="discrete" tableValues="1 1"/><feFuncB type="discrete" tableValues="1 1"/><feFuncA type="linear" slope="0.4" intercept="0"/></feComponentTransfer><feGaussianBlur stdDeviation="6.11111 6.11111"/></filter><filter id="fx3" x="-10%" y="-10%" width="120%" height="120%" filterUnits="userSpaceOnUse" primitiveUnits="userSpaceOnUse"><feComponentTransfer color-interpolation-filters="sRGB"><feFuncR type="discrete" tableValues="1 1"/><feFuncG type="discrete" tableValues="1 1"/><feFuncB type="discrete" tableValues="1 1"/><feFuncA type="linear" slope="0.4" intercept="0"/></feComponentTransfer><feGaussianBlur stdDeviation="6.11111 6.11111"/></filter><filter id="fx4" x="-10%" y="-10%" width="120%" height="120%" filterUnits="userSpaceOnUse" primitiveUnits="userSpaceOnUse"><feComponentTransfer color-interpolation-filters="sRGB"><feFuncR type="discrete" tableValues="1 1"/><feFuncG type="discrete" tableValues="1 1"/><feFuncB type="discrete" tableValues="1 1"/><feFuncA type="linear" slope="0.4" intercept="0"/></feComponentTransfer><feGaussianBlur stdDeviation="6.11111 6.11111"/></filter><filter id="fx5" x="-10%" y="-10%" width="120%" height="120%" filterUnits="userSpaceOnUse" primitiveUnits="userSpaceOnUse"><feComponentTransfer color-interpolation-filters="sRGB"><feFuncR type="discrete" tableValues="1 1"/><feFuncG type="discrete" tableValues="1 1"/><feFuncB type="discrete" tableValues="1 1"/><feFuncA type="linear" slope="0.4" intercept="0"/></feComponentTransfer><feGaussianBlur stdDeviation="6.11111 6.11111"/></filter><clipPath id="clip6"><rect x="51" y="481" width="2283" height="2419"/></clipPath><linearGradient x1="111.5" y1="600" x2="111.5" y2="2900" gradientUnits="userSpaceOnUse" spreadMethod="reflect" id="fill7"><stop offset="0" stop-color="#FFFFFF" stop-opacity="0"/><stop offset="1" stop-color="#FFFFFF"/><stop offset="1" stop-color="#74C4E9"/></linearGradient><linearGradient x1="171" y1="1180.5" x2="2250" y2="1180.5" gradientUnits="userSpaceOnUse" spreadMethod="reflect" id="fill8"><stop offset="0" stop-color="#FFFFFF" stop-opacity="0"/><stop offset="1" stop-color="#FFFFFF"/><stop offset="1" stop-color="#74C4E9"/></linearGradient><linearGradient x1="1306.5" y1="1169" x2="1306.5" y2="1299" gradientUnits="userSpaceOnUse" spreadMethod="reflect" id="fill9"><stop offset="0" stop-color="#FFFFFF" stop-opacity="0"/><stop offset="1" stop-color="#FFFFFF"/><stop offset="1" stop-color="#74C4E9"/></linearGradient><linearGradient x1="2244.5" y1="1304" x2="2244.5" y2="1174" gradientUnits="userSpaceOnUse" spreadMethod="reflect" id="fill10"><stop offset="0" stop-color="#FFFFFF" stop-opacity="0"/><stop offset="1" stop-color="#FFFFFF"/><stop offset="1" stop-color="#74C4E9"/></linearGradient><linearGradient x1="1305.5" y1="2185" x2="1305.5" y2="2055" gradientUnits="userSpaceOnUse" spreadMethod="reflect" id="fill11"><stop offset="0" stop-color="#FFFFFF" stop-opacity="0"/><stop offset="1" stop-color="#FFFFFF"/><stop offset="1" stop-color="#74C4E9"/></linearGradient><linearGradient x1="145" y1="2055.5" x2="1314" y2="2055.5" gradientUnits="userSpaceOnUse" spreadMethod="reflect" id="fill12"><stop offset="0" stop-color="#FFFFFF" stop-opacity="0"/><stop offset="1" stop-color="#FFFFFF"/><stop offset="1" stop-color="#74C4E9"/></linearGradient></defs><g clip-path="url(#clip6)" transform="translate(-51 -481)"><g filter="url(#fx0)" transform="translate(50 480)"><g><path d="M19.7229 74.7226C19.7229 44.3469 44.3472 19.7226 74.7229 19.7226 105.099 19.7226 129.723 44.3469 129.723 74.7226 129.723 105.098 105.099 129.723 74.7229 129.723 44.3472 129.723 19.7229 105.098 19.7229 74.7226Z" fill="#FFFFFF" fill-rule="evenodd"/></g></g><path d="M60.0002 545C60.0002 514.624 84.6245 490 115 490 145.376 490 170 514.624 170 545 170 575.375 145.376 600 115 600 84.6245 600 60.0002 575.375 60.0002 545Z" fill="#FFFFFF" fill-rule="evenodd"/><g filter="url(#fx1)" transform="translate(50 1273)"><g><path d="M19.7229 74.7225C19.7229 44.3469 44.3472 19.7225 74.7229 19.7225 105.099 19.7225 129.723 44.3469 129.723 74.7225 129.723 105.098 105.099 129.723 74.7229 129.723 44.3472 129.723 19.7229 105.098 19.7229 74.7225Z" fill="#FFFFFF" fill-rule="evenodd"/></g></g><path d="M60.0002 1338C60.0002 1307.62 84.6245 1283 115 1283 145.376 1283 170 1307.62 170 1338 170 1368.38 145.376 1393 115 1393 84.6245 1393 60.0002 1368.38 60.0002 1338Z" fill="#FFFFFF" fill-rule="evenodd"/><g filter="url(#fx2)" transform="translate(1250 1273)"><g><path d="M19.7225 74.7225C19.7225 44.3469 44.3469 19.7225 74.7225 19.7225 105.098 19.7225 129.723 44.3469 129.723 74.7225 129.723 105.098 105.098 129.723 74.7225 129.723 44.3469 129.723 19.7225 105.098 19.7225 74.7225Z" fill="#FFFFFF" fill-rule="evenodd"/></g></g><path d="M1260 1338C1260 1307.62 1284.62 1283 1315 1283 1345.38 1283 1370 1307.62 1370 1338 1370 1368.38 1345.38 1393 1315 1393 1284.62 1393 1260 1368.38 1260 1338Z" fill="#FFFFFF" fill-rule="evenodd"/><g filter="url(#fx3)" transform="translate(50 2101)"><g><path d="M19.7229 74.7227C19.7229 44.347 44.3472 19.7227 74.7229 19.7227 105.099 19.7227 129.723 44.347 129.723 74.7227 129.723 105.098 105.099 129.723 74.7229 129.723 44.3472 129.723 19.7229 105.098 19.7229 74.7227Z" fill="#FFFFFF" fill-rule="evenodd"/></g></g><path d="M60.0002 2166C60.0002 2135.62 84.6245 2111 115 2111 145.376 2111 170 2135.62 170 2166 170 2196.38 145.376 2221 115 2221 84.6245 2221 60.0002 2196.38 60.0002 2166Z" fill="#FFFFFF" fill-rule="evenodd"/><g filter="url(#fx4)" transform="translate(1250 2102)"><g><path d="M19.7225 74.7227C19.7225 44.347 44.3469 19.7227 74.7225 19.7227 105.098 19.7227 129.723 44.347 129.723 74.7227 129.723 105.098 105.098 129.723 74.7225 129.723 44.3469 129.723 19.7225 105.098 19.7225 74.7227Z" fill="#FFFFFF" fill-rule="evenodd"/></g></g><path d="M1260 2167C1260 2136.62 1284.62 2112 1315 2112 1345.38 2112 1370 2136.62 1370 2167 1370 2197.38 1345.38 2222 1315 2222 1284.62 2222 1260 2197.38 1260 2167Z" fill="#FFFFFF" fill-rule="evenodd"/><g filter="url(#fx5)" transform="translate(2185 1273)"><g><path d="M19.7227 74.7225C19.7227 44.3469 44.347 19.7225 74.7227 19.7225 105.098 19.7225 129.723 44.3469 129.723 74.7225 129.723 105.098 105.098 129.723 74.7227 129.723 44.347 129.723 19.7227 105.098 19.7227 74.7225Z" fill="#FFFFFF" fill-rule="evenodd"/></g></g><path d="M2195 1338C2195 1307.62 2219.62 1283 2250 1283 2280.38 1283 2305 1307.62 2305 1338 2305 1368.38 2280.38 1393 2250 1393 2219.62 1393 2195 1368.38 2195 1338Z" fill="#FFFFFF" fill-rule="evenodd"/><rect x="103" y="600" width="16.9998" height="2300" fill="url(#fill7)"/><rect x="171" y="1172" width="2079" height="17.0002" fill="url(#fill8)"/><rect x="1298" y="1169" width="16.9999" height="130" fill="url(#fill9)"/><rect x="2236" y="1174" width="16.9998" height="130" fill="url(#fill10)"/><rect x="1297" y="2055" width="17.0002" height="130" fill="url(#fill11)"/><rect x="145" y="2047" width="1169" height="16.9999" fill="url(#fill12)"/></g></svg>